<svg width="90" height="27" viewBox="0 0 90 27" fill="none" xmlns="http://www.w3.org/2000/svg">
<mask id="mask0_3112_576" style="mask-type:alpha" maskUnits="userSpaceOnUse" x="38" y="9" width="49" height="9">
<path d="M83.5349 14.2258V17.3853H81.658V14.2146L78.8099 9.39865H80.9625L82.6183 12.4606L84.2743 9.39865H86.3828L83.5349 14.2258ZM75.9369 17.385L74.557 14.781C74.4979 14.7886 74.4447 14.7918 74.3971 14.7918H74.2367C74.0965 14.7918 73.9788 14.7903 73.8831 14.7868C73.7692 14.7822 73.6554 14.7766 73.5416 14.7701V17.3851H71.6648V9.47498C72.011 9.43865 72.3752 9.40815 72.7578 9.38248C73.1399 9.35698 73.5709 9.34415 74.0492 9.34415C74.6819 9.34415 75.2194 9.41315 75.6608 9.55115C76.1023 9.68898 76.4647 9.87781 76.7486 10.1175C77.0312 10.357 77.2374 10.6391 77.3664 10.9618C77.4949 11.2853 77.5594 11.6288 77.5594 11.9918C77.5594 12.4708 77.4382 12.9128 77.1952 13.3158C76.9525 13.7185 76.6104 14.0475 76.1689 14.3018L78.0676 17.3851H75.9369V17.385ZM75.6054 12.057C75.6054 11.723 75.484 11.4633 75.2412 11.2781C74.9989 11.0926 74.6743 11.0001 74.2703 11.0001C74.1227 11.0001 73.9974 11.0038 73.8947 11.0113C73.7917 11.0186 73.6735 11.0326 73.5418 11.0546V13.2558C73.6668 13.2705 73.7694 13.2791 73.8507 13.2828C73.9315 13.287 74.0273 13.2881 74.1377 13.2881C74.5865 13.2881 74.9435 13.1848 75.2082 12.9781C75.4732 12.7706 75.6054 12.464 75.6054 12.057ZM64.9278 17.3851V9.39865H66.8043V15.6968H70.05V17.3853H64.9278V17.3851ZM61.679 17.3851L61.0718 15.9358H58.2793L57.6721 17.3851H55.762L59.5707 9.33331H59.8247L63.6332 17.3853H61.6792L61.679 17.3851ZM59.6811 12.6018L58.8752 14.5198H60.4759L59.6811 12.602V12.6018ZM53.574 17.4508H53.3534L49.4895 9.39831H51.6424L53.4857 13.7133L55.3294 9.39848H57.4376L53.574 17.4506V17.4508ZM46.2634 17.3853V9.39848H48.1399V17.3851H46.2634V17.3853ZM42.432 17.3853L41.0521 14.7813C40.9932 14.789 40.94 14.7921 40.8922 14.7921H40.732C40.5918 14.7921 40.4742 14.7906 40.3782 14.7871C40.2644 14.7825 40.1507 14.7769 40.037 14.7705V17.3855H38.1602V9.47498C38.5063 9.43881 38.8705 9.40831 39.253 9.38265C39.6351 9.35715 40.066 9.34431 40.5444 9.34431C41.1771 9.34431 41.7146 9.41331 42.156 9.55131C42.5975 9.68915 42.96 9.87798 43.2437 10.1176C43.5264 10.3571 43.7326 10.6393 43.8617 10.962C43.9901 11.2855 44.0547 11.629 44.0547 11.992C44.0547 12.471 43.9333 12.913 43.6903 13.316C43.4477 13.7186 43.1058 14.0476 42.6642 14.302L44.5628 17.3853H42.4322H42.432ZM42.1006 12.0573C42.1006 11.7233 41.9793 11.4636 41.7363 11.2785C41.494 11.093 41.1695 11.0005 40.7654 11.0005C40.618 11.0005 40.4927 11.0041 40.3899 11.0116C40.2869 11.019 40.1687 11.033 40.037 11.055V13.2561C40.1619 13.2708 40.2646 13.2795 40.346 13.2831C40.4267 13.2873 40.5226 13.2885 40.633 13.2885C41.0817 13.2885 41.4387 13.1851 41.7036 12.9785C41.9684 12.771 42.1006 12.4643 42.1006 12.0573Z" fill="white"/>
</mask>
<g mask="url(#mask0_3112_576)">
<path d="M83.5349 14.2258V17.3853H81.658V14.2146L78.8099 9.39865H80.9625L82.6183 12.4606L84.2743 9.39865H86.3828L83.5349 14.2258ZM75.9369 17.385L74.557 14.781C74.4979 14.7886 74.4447 14.7918 74.3971 14.7918H74.2367C74.0965 14.7918 73.9788 14.7903 73.8831 14.7868C73.7692 14.7822 73.6554 14.7766 73.5416 14.7701V17.3851H71.6648V9.47498C72.011 9.43865 72.3752 9.40815 72.7578 9.38248C73.1399 9.35698 73.5709 9.34415 74.0492 9.34415C74.6819 9.34415 75.2194 9.41315 75.6608 9.55115C76.1023 9.68898 76.4647 9.87781 76.7486 10.1175C77.0312 10.357 77.2374 10.6391 77.3664 10.9618C77.4949 11.2853 77.5594 11.6288 77.5594 11.9918C77.5594 12.4708 77.4382 12.9128 77.1952 13.3158C76.9525 13.7185 76.6104 14.0475 76.1689 14.3018L78.0676 17.3851H75.9369V17.385ZM75.6054 12.057C75.6054 11.723 75.484 11.4633 75.2412 11.2781C74.9989 11.0926 74.6743 11.0001 74.2703 11.0001C74.1227 11.0001 73.9974 11.0038 73.8947 11.0113C73.7917 11.0186 73.6735 11.0326 73.5418 11.0546V13.2558C73.6668 13.2705 73.7694 13.2791 73.8507 13.2828C73.9315 13.287 74.0273 13.2881 74.1377 13.2881C74.5865 13.2881 74.9435 13.1848 75.2082 12.9781C75.4732 12.7706 75.6054 12.464 75.6054 12.057ZM64.9278 17.3851V9.39865H66.8043V15.6968H70.05V17.3853H64.9278V17.3851ZM61.679 17.3851L61.0718 15.9358H58.2793L57.6721 17.3851H55.762L59.5707 9.33331H59.8247L63.6332 17.3853H61.6792L61.679 17.3851ZM59.6811 12.6018L58.8752 14.5198H60.4759L59.6811 12.602V12.6018ZM53.574 17.4508H53.3534L49.4895 9.39831H51.6424L53.4857 13.7133L55.3294 9.39848H57.4376L53.574 17.4506V17.4508ZM46.2634 17.3853V9.39848H48.1399V17.3851H46.2634V17.3853ZM42.432 17.3853L41.0521 14.7813C40.9932 14.789 40.94 14.7921 40.8922 14.7921H40.732C40.5918 14.7921 40.4742 14.7906 40.3782 14.7871C40.2644 14.7825 40.1507 14.7769 40.037 14.7705V17.3855H38.1602V9.47498C38.5063 9.43881 38.8705 9.40831 39.253 9.38265C39.6351 9.35715 40.066 9.34431 40.5444 9.34431C41.1771 9.34431 41.7146 9.41331 42.156 9.55131C42.5975 9.68915 42.96 9.87798 43.2437 10.1176C43.5264 10.3571 43.7326 10.6393 43.8617 10.962C43.9901 11.2855 44.0547 11.629 44.0547 11.992C44.0547 12.471 43.9333 12.913 43.6903 13.316C43.4477 13.7186 43.1058 14.0476 42.6642 14.302L44.5628 17.3853H42.4322H42.432ZM42.1006 12.0573C42.1006 11.7233 41.9793 11.4636 41.7363 11.2785C41.494 11.093 41.1695 11.0005 40.7654 11.0005C40.618 11.0005 40.4927 11.0041 40.3899 11.0116C40.2869 11.019 40.1687 11.033 40.037 11.055V13.2561C40.1619 13.2708 40.2646 13.2795 40.346 13.2831C40.4267 13.2873 40.5226 13.2885 40.633 13.2885C41.0817 13.2885 41.4387 13.1851 41.7036 12.9785C41.9684 12.771 42.1006 12.4643 42.1006 12.0573Z" fill="white"/>
<path fill-rule="evenodd" clip-rule="evenodd" d="M37.9922 9.16663H86.4537V17.5H37.9922V9.16663Z" fill="white"/>
</g>
<path fill-rule="evenodd" clip-rule="evenodd" d="M29.7168 1.5H29.8856V25.5H29.7168V1.5Z" fill="white"/>
<path fill-rule="evenodd" clip-rule="evenodd" d="M11.6767 13.5262V8.763H14.0894C15.4221 8.763 16.5024 9.82933 16.5024 11.1447C16.5024 12.4597 15.4221 13.5262 14.0894 13.5262H11.6765H11.6767ZM14.0894 4H2.02539L6.85094 8.763V13.5262H2.02539L6.85094 18.2892V23.0523H11.6767V18.2892H14.014L16.3514 23.0523H21.1772L18.2141 17.0147C20.0953 15.7243 21.3278 13.577 21.3278 11.1447C21.3279 7.19867 18.0873 4 14.0896 4H14.0894Z" fill="white"/>
<path opacity="0.25" fill-rule="evenodd" clip-rule="evenodd" d="M11.6773 13.5262L6.85156 12.8995V13.5262H11.6773ZM11.6773 8.763H6.85156V9.3585L11.6773 11.1447V8.763Z" fill="white"/>
<path opacity="0.5" fill-rule="evenodd" clip-rule="evenodd" d="M11.6773 18.2892H6.85156V19.48L11.6773 20.6707V18.2892ZM18.1983 17.112C17.0607 17.8763 15.6675 18.3292 14.1639 18.3292H14.0901L15.4914 21.1722C16.9888 21.0737 18.5235 20.8925 19.6216 20.035L18.1983 17.112Z" fill="white"/>
</svg>
